<?xml version="1.0" encoding="utf-8"?>
<!-- Generator: Adobe Illustrator 28.1.0, SVG Export Plug-In . SVG Version: 6.00 Build 0)  -->
<svg version="1.1" id="Layer_1" xmlns="http://www.w3.org/2000/svg" xmlns:xlink="http://www.w3.org/1999/xlink" x="0px" y="0px"
	 viewBox="0 0 243.9 244.4" style="enable-background:new 0 0 243.9 244.4;" xml:space="preserve">
<style type="text/css">
	.st0{fill:#231F20;}
</style>
<path class="st0" d="M121.8,0C58.1,0,5.1,48.9,0,112.4l65.5,27.1c5.7-3.9,12.5-6,19.5-6h1.9L116,91.3v-0.6c0-25.4,20.7-46.1,46.1-46
	c25.4,0,46.1,20.7,46,46.1c0,25.4-20.6,46-46.1,46h-1l-41.4,29.6c0,0.6,0,1.1,0,1.7c0,19.1-15.4,34.6-34.5,34.6
	c-16.5,0-30.8-11.6-34-27.8l-47-19.3c18.4,64.9,86,102.6,150.9,84.2s102.6-86,84.2-150.9C224.4,36.3,176.4,0,121.8,0z"/>
<path class="st0" d="M76.6,185.4l-15-6.2c6.2,12.9,21.8,18.3,34.7,12.1c12.9-6.2,18.3-21.8,12.1-34.7c-5.8-12.1-20-17.8-32.6-13
	l15.4,6.5c9.9,3.8,14.8,14.8,11,24.7c-3.8,9.9-14.8,14.8-24.7,11c-0.4-0.1-0.7-0.3-1.1-0.4L76.6,185.4z"/>
<path class="st0" d="M192.8,90.7c-0.1-17-13.9-30.7-30.9-30.6S131.3,74,131.4,91c0.1,16.9,13.8,30.6,30.7,30.6
	C179.1,121.5,192.8,107.7,192.8,90.7C192.8,90.7,192.8,90.7,192.8,90.7z M139.1,90.7c0-12.7,10.3-23.1,23.1-23.1
	c12.7,0,23.1,10.3,23.1,23.1s-10.3,23.1-23.1,23.1C149.4,113.7,139.1,103.4,139.1,90.7C139.1,90.7,139.1,90.7,139.1,90.7L139.1,90.7
	z"/>
</svg>
